@startuml

left to right direction

class Person {
    SVNr: int
    name: String
    playerAdress: String
    birthDate: Date
}

class Team{
teamName: String
creationDate: Date
loc: String
}

class Spieler{
    position: String
}

class Schiedsrichter{
gradutionDate: Date
license: String
}

class Spiel{
dateTime: String
}

class Goals {
    anzahl: int
}

Goals "*" -- "1" Spieler
Goals "*" -- "1" Spiel

class Championship{
champNO: int
champNAME: String
champStart: Date
champEnd: Date
}

Championship "1" -- "*"Spiel
Spiel "*"-- "1" Stadion

class Stadion{
stadionLOC: String
}

Team "1" -- "*"Spieler
Spiel  "*"-- "2" Team
Spiel "*" -- "1" Schiedsrichter

Person <|-- Spieler
Person <|-- Schiedsrichter

@enduml